<?xml version="1.0" encoding="UTF-8"?>
<svg id="Ebene_1" xmlns="http://www.w3.org/2000/svg" viewBox="0 0 672.33 113.46">
  <defs>
    <style>
      .cls-1 {
        fill: #fff;
      }

      .cls-2 {
        fill: #e7352b;
      }
    </style>
  </defs>
  <path class="cls-1" d="M0,113.46V22.2h15.49v16.96c1.95-6.18,5.23-10.88,9.82-14.09,4.59-3.21,9.98-4.82,16.17-4.82s11.57,1.48,16.16,4.45c4.59,2.97,8.17,7.02,10.74,12.14s3.84,10.9,3.84,17.32v2.81c0,6.43-1.22,12.24-3.66,17.45-2.44,5.21-5.94,9.31-10.49,12.32-4.56,3.01-10.09,4.51-16.59,4.51-4.56,0-8.74-.85-12.57-2.56-3.82-1.71-6.95-4.31-9.39-7.81v32.57H0ZM35.99,74.91c4.96,0,8.97-1.79,12.02-5.37,3.05-3.58,4.57-8.25,4.57-14.03s-1.52-10.29-4.57-13.79c-3.05-3.5-7.06-5.25-12.02-5.25-3.01,0-5.79.69-8.36,2.07-2.56,1.38-4.64,3.38-6.22,5.98-1.59,2.6-2.38,5.69-2.38,9.27v4.51c0,3.5.83,6.49,2.5,8.97,1.67,2.48,3.8,4.37,6.41,5.67,2.6,1.3,5.29,1.95,8.05,1.95Z"/>
  <path class="cls-1" d="M116.39,91.38c-5.69,0-10.72-.98-15.07-2.93-4.35-1.95-7.99-4.58-10.92-7.87s-5.12-6.99-6.59-11.1c-1.46-4.11-2.2-8.32-2.2-12.63v-2.44c0-4.39.73-8.66,2.2-12.81s3.66-7.85,6.59-11.1c2.93-3.25,6.48-5.83,10.67-7.75,4.19-1.91,9.05-2.87,14.58-2.87,7.16,0,13.2,1.61,18.12,4.82,4.92,3.21,8.68,7.42,11.29,12.63,2.6,5.21,3.9,10.82,3.9,16.84v6.59h-48.92c.65,4.56,2.3,8.16,4.94,10.8,2.64,2.64,6.44,3.96,11.41,3.96,3.5,0,6.41-.67,8.72-2.01,2.32-1.34,3.88-3.07,4.7-5.18h17.93c-1.46,6.83-4.98,12.38-10.55,16.65-5.57,4.27-12.5,6.4-20.8,6.4ZM115.65,35.75c-4.23,0-7.67,1.2-10.31,3.6-2.64,2.4-4.33,5.84-5.06,10.31h30.01c-.65-4.47-2.22-7.91-4.7-10.31-2.48-2.4-5.79-3.6-9.94-3.6Z"/>
  <path class="cls-1" d="M192.27,89.91c-6.75,0-12.2-.83-16.35-2.5s-7.18-4.47-9.09-8.42c-1.91-3.94-2.87-9.29-2.87-16.04v-26.47h-10.13v-14.27h10.13V4.15h18.18v18.06h19.52v14.27h-19.52v27.21c0,3.17.83,5.59,2.5,7.26,1.67,1.67,4.04,2.5,7.14,2.5h9.88v16.47h-9.39Z"/>
  <path class="cls-1" d="M245.22,91.38c-5.69,0-10.72-.98-15.07-2.93-4.35-1.95-7.99-4.58-10.92-7.87s-5.12-6.99-6.59-11.1c-1.46-4.11-2.2-8.32-2.2-12.63v-2.44c0-4.39.73-8.66,2.2-12.81s3.66-7.85,6.59-11.1c2.93-3.25,6.48-5.83,10.67-7.75,4.19-1.91,9.05-2.87,14.58-2.87,7.16,0,13.2,1.61,18.12,4.82,4.92,3.21,8.68,7.42,11.29,12.63,2.6,5.21,3.9,10.82,3.9,16.84v6.59h-48.92c.65,4.56,2.3,8.16,4.94,10.8,2.64,2.64,6.45,3.96,11.41,3.96,3.5,0,6.4-.67,8.72-2.01,2.32-1.34,3.88-3.07,4.7-5.18h17.93c-1.46,6.83-4.98,12.38-10.55,16.65-5.57,4.27-12.5,6.4-20.8,6.4ZM244.48,35.75c-4.23,0-7.67,1.2-10.31,3.6-2.64,2.4-4.33,5.84-5.06,10.31h30.01c-.65-4.47-2.22-7.91-4.7-10.31-2.48-2.4-5.79-3.6-9.94-3.6Z"/>
  <path class="cls-1" d="M290.72,89.06V22.2h15.49v22.69c.73-7.56,3.07-13.38,7.01-17.45,3.94-4.07,9.33-6.1,16.17-6.1h2.56v16.84h-4.88c-5.45,0-9.62,1.46-12.5,4.39-2.89,2.93-4.33,7.08-4.33,12.44v34.04h-19.52Z"/>
  <path class="cls-1" d="M371.36,89.06V0h6.47v57.58l30.01-32.57h7.32l-25.99,28.06,32.82,35.99h-7.81l-27.33-30.13h-9.03v30.13h-6.47Z"/>
  <path class="cls-1" d="M435.65,89.06V5.49h-9.64V0h16.1v89.06h-6.47Z"/>
  <path class="cls-1" d="M484.09,90.77c-6.51,0-11.92-1.75-16.23-5.25-4.31-3.5-6.47-8.46-6.47-14.88s2.11-11,6.34-14.46c4.23-3.46,10.21-5.19,17.93-5.19h19.52v-4.64c0-5.04-1.34-8.99-4.03-11.83-2.68-2.85-7.12-4.27-13.3-4.27-3.42,0-6.77.1-10.06.31-3.29.2-6.16.47-8.6.79v-5.86c2.44-.32,5.08-.59,7.93-.79,2.85-.2,5.57-.31,8.17-.31,9.68,0,16.47,1.87,20.37,5.61,3.9,3.74,5.86,9.52,5.86,17.32v41.72h-5.12v-13.42c-1.55,5.04-4.33,8.83-8.36,11.35s-8.68,3.78-13.97,3.78ZM485.06,85.4c3.17,0,6.26-.61,9.27-1.83,3.01-1.22,5.53-3.25,7.56-6.1,2.03-2.85,3.13-6.75,3.29-11.71v-9.52h-20.13c-5.61,0-9.88,1.32-12.81,3.96-2.93,2.64-4.39,6.12-4.39,10.43,0,4.64,1.59,8.26,4.76,10.86,3.17,2.6,7.32,3.9,12.44,3.9Z"/>
  <path class="cls-1" d="M554.97,90.89c-7.97,0-14.09-1.81-18.36-5.43-4.27-3.62-6.45-8.31-6.53-14.09h6.34c0,3.66,1.44,6.85,4.33,9.58,2.89,2.73,7.62,4.09,14.21,4.09s11.14-1.36,14.15-4.09c3.01-2.72,4.51-5.96,4.51-9.7s-1.36-6.47-4.09-8.42c-2.73-1.95-6.41-3.17-11.04-3.66l-7.56-.85c-5.61-.65-10.07-2.4-13.36-5.25-3.29-2.85-4.94-6.71-4.94-11.59,0-5.2,1.99-9.58,5.98-13.11,3.98-3.54,9.43-5.31,16.35-5.31s12.06,1.65,16.17,4.94c4.11,3.29,6.2,7.71,6.28,13.24h-6.34c0-3.5-1.38-6.42-4.15-8.78-2.77-2.36-6.75-3.54-11.96-3.54s-9.5,1.26-12.14,3.78c-2.64,2.52-3.96,5.49-3.96,8.91,0,2.85,1.04,5.29,3.11,7.32,2.07,2.03,5.23,3.29,9.46,3.78l7.56.85c6.02.65,11,2.42,14.95,5.31,3.94,2.89,5.92,7.06,5.92,12.5,0,3.66-.98,6.95-2.93,9.88-1.95,2.93-4.8,5.27-8.54,7.02-3.74,1.75-8.22,2.62-13.42,2.62Z"/>
  <path class="cls-1" d="M618.77,90.89c-7.97,0-14.09-1.81-18.36-5.43-4.27-3.62-6.45-8.31-6.53-14.09h6.34c0,3.66,1.44,6.85,4.33,9.58,2.89,2.73,7.62,4.09,14.21,4.09s11.14-1.36,14.15-4.09c3.01-2.72,4.51-5.96,4.51-9.7s-1.36-6.47-4.09-8.42c-2.73-1.95-6.41-3.17-11.04-3.66l-7.56-.85c-5.61-.65-10.07-2.4-13.36-5.25-3.29-2.85-4.94-6.71-4.94-11.59,0-5.2,1.99-9.58,5.98-13.11,3.98-3.54,9.43-5.31,16.35-5.31s12.06,1.65,16.17,4.94c4.11,3.29,6.2,7.71,6.28,13.24h-6.34c0-3.5-1.38-6.42-4.15-8.78-2.77-2.36-6.75-3.54-11.96-3.54s-9.5,1.26-12.14,3.78c-2.64,2.52-3.96,5.49-3.96,8.91,0,2.85,1.04,5.29,3.11,7.32,2.07,2.03,5.23,3.29,9.46,3.78l7.56.85c6.02.65,11,2.42,14.95,5.31,3.94,2.89,5.92,7.06,5.92,12.5,0,3.66-.98,6.95-2.93,9.88-1.95,2.93-4.8,5.27-8.54,7.02-3.74,1.75-8.22,2.62-13.42,2.62Z"/>
  <path class="cls-2" d="M660.86,89.06v-12.08h11.47v12.08h-11.47Z"/>
</svg>